/* XPM */
static char * level_xpm[] = {
"64 64 10 1",
" 	c None",
".	c #000000",
"+	c #8C6810",
"@	c #B58000",
"#	c #00FF00",
"$	c #919191",
"%	c #FFFF00",
"&	c #FF00FF",
"*	c #FF0000",
"=	c #0000FF",
"                        .+++++++++++++++++++++++++++++++++++++++",
"                        .+++++++++++++++++++++++++++++++++++++++",
"                        .+++++++++++++++++++++++++++++++++++++++",
"                        .+++++++++++++++++++++++++++++++++++++++",
"             @          .++++++++++++++...........++++++++++++++",
".......     .........#..+++++++++++++++. $$      .++++++++++++++",
"++++++.     .++++++++#+++++++++++++++++. $$      .++++++++++++++",
"++++++.     .++++++++#+++++++++++++++++.         .++++++++++++++",
"++++++.     .+++     #                 .         .++++++++++++++",
"++++++.     .+++     #                 .         .++++++++++++++",
"++++++.     .+++     #                 .         .++++++++++++++",
"++++++.     .+++     #                 .         .++++++++++++++",
"++++++.     .+++.#........             .         .++++++++++++++",
"++++++.     .+++ #    $$               .         .++++++++++++++",
"++++++.     .+++ #    $$               .         .++++++++++++++",
"++++++.     .+++ #                     .         .++++++++++++++",
"++++++.     .+++ #                     .         .++++++++++++++",
"++++++.     .+++ #                     . % %     .++++++++++++++",
"++++++.     .+++ #                     .         .++++++++++++++",
"+++++.       .++ #                     . % %     .++++++++++++++",
"+++++.       .+....&&&&&&&&&&....#...........#....++++++++++++++",
"+++++.       .++   **********    #           #                 .",
"+++++.       .+++  **********    #           #                 .",
"+++++.       .+++                #           #                 .",
"++++.         .+++               #           #                 .",
"++++.         .+++               #           #                 .",
"++++.         .+++               #           #                 .",
"++++.         .++++              #           #                 .",
"+++.           .++++             #           #                 .",
"+++.           .+++++..#..............       .                 .",
"++.             .++++  #                                       .",
"++.              .+++  #                                       .",
"+.                .++  #                                       .",
"+.                 .+  #                                       .",
"+.                  .  #                                       .",
".                   .  #                                       .",
".                   .  #                                       .",
".                    ........................********........#..",
".                           $$$$$$$          ........  $$$$$ # .",
".                           $$$$$$$                    $$$$$ # .",
".                                                            # .",
".                                                            # .",
".                                                            # .",
".                                                            # .",
".                                                            # .",
".                                                            # .",
".                                                            # .",
".....................................======.........*********...",
"++++++++++++++++++++++++++++++++++++.======.++++++++*********+++",
"++++++++++++++++++++++++++++++++++++.======.++++++++*********+++",
"+++++++++++++++++++++++++.......++++.======.++++++++         +++",
"+++++++++++++++++++++++++.=====.++++.======.++++++++         +++",
"+++++++++++++++++++++++++.=%=%=.++++.======.++++++++         +++",
"+++++++++++++++++++++++++.=====......======.++++++++         +++",
"+++++++++++++++++++++++++.=%=%=============.++++++++         +++",
"+++++++++++++++++++++++++.=================.++++++++         +++",
"+++++++++++++++++++++++++.=%=%=============.++++++++         +++",
"+++++++++++++++++++++++++.=================.++++++++         +++",
"+++++++++++++++++++++++++............======.++++++++         +++",
"++++++++++++++++++++++++++++++++++++.======.++++++++         +++",
"++++++++++++++++++++++++++++++++++++.======.++++++++         +++",
"++++++++++++++++++++++++++++++++++++.======.++++++++         +++",
"++++++++++++++++++++++++++++++++++++.======.++++++++         +++",
"++++++++++++++++++++++++++++++++++++.======.++++++++         +++"};
